<svg id="e9jzP1WgZrv1" xmlns="http://www.w3.org/2000/svg" xmlns:xlink="http://www.w3.org/1999/xlink" viewBox="0 0 256 256" shape-rendering="geometricPrecision" text-rendering="geometricPrecision" style="background-color:transparent"><defs><radialGradient id="e9jzP1WgZrv23-fill" cx="0" cy="0" r="0.5" spreadMethod="pad" gradientUnits="objectBoundingBox" gradientTransform="translate(0.5 0.5)"><stop id="e9jzP1WgZrv23-fill-0" offset="87%" stop-color="rgba(0,0,0,0)"/><stop id="e9jzP1WgZrv23-fill-1" offset="100%" stop-color="#000"/></radialGradient></defs><ellipse rx="128" ry="128" transform="matrix(.953125 0 0 0.953125 128 128)" fill="#28282d" stroke-width="10"/><g opacity="0.5" clip-path="url(#e9jzP1WgZrv16)"><g style="mix-blend-mode:screen"><g transform="matrix(0 1-1 0 256 0)"><line x1="0" y1="-122" x2="0" y2="122" transform="translate(128 128)" fill="none" stroke="#50505a" stroke-width="2.56"/><line x1="0" y1="-122" x2="0" y2="122" transform="translate(178 128)" fill="none" stroke="#50505a" stroke-width="2.56"/><line x1="0" y1="-122" x2="0" y2="122" transform="translate(228 128)" fill="none" stroke="#50505a" stroke-width="2.56"/><line x1="0" y1="-122" x2="0" y2="122" transform="translate(78 128)" fill="none" stroke="#50505a" stroke-width="2.56"/><line x1="0" y1="-122" x2="0" y2="122" transform="translate(28 128)" fill="none" stroke="#50505a" stroke-width="2.56"/></g><line x1="0" y1="-122" x2="0" y2="122" transform="translate(128 128)" fill="none" stroke="#50505a" stroke-width="2.56"/><line x1="0" y1="-122" x2="0" y2="122" transform="translate(178 128)" fill="none" stroke="#50505a" stroke-width="2.56"/><line x1="0" y1="-122" x2="0" y2="122" transform="translate(228 128)" fill="none" stroke="#50505a" stroke-width="2.56"/><line x1="0" y1="-122" x2="0" y2="122" transform="translate(78 128)" fill="none" stroke="#50505a" stroke-width="2.56"/><line x1="0" y1="-122" x2="0" y2="122" transform="translate(28 128)" fill="none" stroke="#50505a" stroke-width="2.56"/></g><clipPath id="e9jzP1WgZrv16"><ellipse rx="128" ry="128" transform="matrix(.953125 0 0 0.953125 128 128)" fill="none" stroke-width="10"/></clipPath></g><g clip-path="url(#e9jzP1WgZrv20)"><path style="mix-blend-mode:color-dodge" d="M6,128l57.858604.000002C78.978615,116.242644,85.137078,117.821738,91.625,128l23.114983.000001l7.268767,14.341697L128.5,50l8.707084,109.522423l7.929567-31.522416L163.324158,128c9.186025-11.435803,22.237873-22.611145,28.060739,0L250,128" fill="none" stroke="#1dff00" stroke-width="3" stroke-linecap="square" stroke-linejoin="round"/><clipPath id="e9jzP1WgZrv20"><rect width="256" height="256" rx="0" ry="0" transform="translate(-256 0)" fill="none" stroke-width="0"/></clipPath></g><line x1="-122" y1="0" x2="122" y2="0" transform="translate(128 128)" fill="none" stroke="#4168b6" stroke-width="2.56"/><ellipse rx="128" ry="128" transform="matrix(.953125 0 0 0.953125 128 128)" fill="url(#e9jzP1WgZrv23-fill)" stroke-width="10"/><ellipse rx="128" ry="128" transform="matrix(.953125 0 0 0.953125 128 128)" fill="none" stroke="#3c3c50" stroke-width="10"/></svg>